<svg xmlns="http://www.w3.org/2000/svg" xmlns:xlink="http://www.w3.org/1999/xlink" width="500" zoomAndPan="magnify" viewBox="0 0 375 374.999991" height="500" preserveAspectRatio="xMidYMid meet" version="1.0"><defs><g/><clipPath id="e8cfedbfd0"><path d="M 3.441406 2.285156 L 371.691406 2.285156 L 371.691406 372.785156 L 3.441406 372.785156 Z M 3.441406 2.285156 " clip-rule="nonzero"/></clipPath></defs><g clip-path="url(#e8cfedbfd0)"><path fill="#ffffff" d="M 371.1875 185.554688 C 370.867188 183.949219 370.289062 182.390625 369.519531 180.957031 C 368.300781 178.691406 366.785156 176.554688 365.460938 174.332031 L 355.539062 157.507812 C 352.933594 152.996094 350.28125 148.722656 348.933594 143.632812 C 347.566406 138.460938 348.015625 132.710938 348.035156 127.386719 L 348.035156 111.417969 C 347.996094 106.800781 348.398438 101.949219 346.347656 97.675781 C 345.363281 95.621094 343.953125 93.890625 342.222656 92.394531 C 339.871094 90.382812 336.730469 88.867188 334.078125 87.199219 L 314.625 75.144531 C 310.925781 72.898438 306.84375 70.78125 303.828125 67.617188 C 300.730469 64.367188 298.613281 59.792969 296.433594 55.902344 L 288.308594 41.515625 C 286.515625 38.265625 284.78125 34.589844 282.152344 31.898438 C 279.824219 29.523438 276.59375 27.75 273.433594 26.808594 C 269.820312 25.742188 265.84375 25.976562 262.125 25.953125 L 246.175781 25.953125 C 240.640625 25.953125 234.398438 26.554688 229.074219 24.84375 C 223.988281 23.21875 219.113281 19.796875 214.472656 17.148438 L 197.820312 7.699219 C 195.214844 6.179688 192.347656 4.066406 189.527344 3.015625 C 188.136719 2.503906 186.855469 2.527344 185.421875 2.566406 C 182.003906 3.359375 178.691406 5.925781 175.652344 7.675781 L 158.53125 17.316406 C 153.976562 19.839844 149.125 22.941406 144.125 24.394531 C 138.90625 25.890625 133.15625 25.867188 127.769531 26.0625 L 110.242188 26.488281 C 106.5625 26.53125 102.4375 26.191406 98.867188 27.066406 C 96.175781 27.730469 93.566406 29.226562 91.578125 31.148438 C 91 31.703125 90.46875 32.304688 89.976562 32.945312 C 89.546875 33.5 89.164062 34.078125 88.777344 34.675781 C 87.304688 37.027344 86.105469 39.59375 84.738281 42.007812 L 75.074219 59.195312 C 73.324219 62.316406 71.675781 66.101562 69.15625 68.6875 C 66.886719 71.039062 63.554688 72.683594 60.773438 74.375 L 42.027344 85.917969 C 38.886719 87.839844 35.335938 89.59375 32.429688 91.839844 C 30.910156 93.015625 29.605469 94.359375 28.515625 95.941406 C 27.128906 97.929688 26.207031 100.195312 25.738281 102.570312 C 25.140625 105.667969 25.351562 108.9375 25.375 112.082031 L 25.417969 127.195312 C 25.417969 133.074219 25.824219 139.015625 24.070312 144.703125 C 22.488281 149.8125 19.558594 154.472656 16.996094 159.132812 L 9.640625 172.449219 C 7.761719 175.722656 5.386719 179.207031 4.296875 182.816406 C 3.441406 185.660156 3.441406 188.652344 4.167969 191.539062 C 5.066406 195.066406 7.203125 198.359375 8.914062 201.523438 L 16.183594 214.691406 C 19.238281 220.183594 22.660156 225.847656 24.242188 231.984375 C 25.394531 236.496094 25.226562 241.132812 25.226562 245.75 L 25.226562 259.28125 C 25.160156 265.289062 24.945312 271.53125 27.855469 277.003906 C 29.09375 279.355469 30.847656 281.300781 32.878906 282.96875 C 35.039062 284.742188 37.792969 286.023438 40.1875 287.480469 L 54.746094 296.5625 C 59.277344 299.386719 64.410156 302.078125 68.171875 305.90625 C 71.164062 308.941406 73.003906 312.46875 75.160156 316.101562 L 84.84375 332.371094 C 86.769531 335.578125 88.566406 339.105469 90.9375 342.011719 C 92.199219 343.527344 93.78125 344.917969 95.511719 345.902344 C 97.285156 346.90625 99.273438 347.675781 101.261719 348.105469 C 104.277344 348.746094 107.675781 348.488281 110.753906 348.511719 L 126.253906 348.511719 C 131.894531 348.550781 137.945312 348.082031 143.417969 349.707031 C 146.132812 350.519531 148.546875 351.910156 151.007812 353.277344 L 160.457031 358.621094 L 176.808594 367.664062 C 179.160156 368.96875 181.832031 371.019531 184.398438 371.789062 C 186.171875 372.324219 187.859375 372.175781 189.613281 371.726562 L 200.601562 365.484375 L 214.667969 357.53125 C 219.667969 354.667969 225.011719 350.96875 230.636719 349.515625 C 235.402344 348.296875 240.53125 348.59375 245.40625 348.59375 L 261.460938 348.59375 C 266.742188 348.617188 272.0625 349.023438 276.957031 346.648438 C 278.796875 345.753906 280.570312 344.492188 281.960938 342.953125 C 284.890625 339.703125 287.046875 335.382812 289.335938 331.664062 L 299.9375 314.476562 C 301.5625 311.847656 303.144531 308.726562 305.199219 306.441406 C 307.355469 304.023438 310.648438 302.398438 313.363281 300.691406 L 332.601562 288.375 C 335.894531 286.261719 339.976562 284.25 342.734375 281.492188 C 344.894531 279.335938 346.261719 276.832031 347.183594 273.925781 C 348.316406 270.292969 348.101562 266.421875 348.101562 262.660156 L 348.058594 247.566406 C 348.035156 241.816406 347.652344 236.003906 349.277344 230.425781 C 350.066406 227.6875 351.480469 225.144531 352.867188 222.664062 L 358.277344 213.324219 L 366.230469 199.554688 C 367.769531 196.882812 369.628906 194.210938 370.675781 191.324219 C 371.335938 189.507812 371.59375 187.457031 371.210938 185.554688 Z M 371.1875 185.554688 " fill-opacity="1" fill-rule="nonzero"/></g><path fill="#004aad" d="M 76.550781 314.585938 L 86.128906 330.660156 C 88.03125 333.824219 89.804688 337.328125 92.15625 340.171875 C 93.394531 341.667969 94.976562 343.058594 96.667969 344.019531 C 98.417969 345.023438 100.386719 345.773438 102.351562 346.199219 C 105.34375 346.820312 108.679688 346.585938 111.738281 346.585938 L 127.042969 346.585938 C 132.621094 346.628906 138.585938 346.160156 143.996094 347.78125 C 146.6875 348.574219 149.0625 349.964844 151.5 351.308594 L 160.820312 356.589844 L 176.980469 365.527344 C 179.308594 366.808594 181.9375 368.839844 184.484375 369.609375 C 186.234375 370.121094 187.902344 369.992188 189.632812 369.542969 L 200.492188 363.386719 L 214.390625 355.519531 C 219.328125 352.699219 224.605469 349.023438 230.164062 347.613281 C 234.867188 346.394531 239.933594 346.691406 244.742188 346.691406 L 260.605469 346.691406 C 265.820312 346.714844 271.082031 347.121094 275.933594 344.769531 C 277.75 343.890625 279.503906 342.632812 280.871094 341.113281 C 283.757812 337.90625 285.914062 333.632812 288.160156 329.953125 L 298.636719 312.980469 C 300.238281 310.394531 301.796875 307.316406 303.828125 305.027344 C 305.945312 302.636719 309.214844 301.054688 311.890625 299.34375 L 330.894531 287.179688 C 334.140625 285.085938 338.183594 283.097656 340.917969 280.382812 C 343.054688 278.242188 344.402344 275.785156 345.300781 272.898438 C 346.433594 269.308594 346.199219 265.480469 346.199219 261.761719 L 346.15625 246.863281 C 346.132812 241.199219 345.75 235.449219 347.375 229.933594 C 348.164062 227.21875 349.554688 224.714844 350.921875 222.257812 L 356.265625 213.042969 L 364.113281 199.449219 C 365.628906 196.820312 367.46875 194.167969 368.515625 191.304688 C 369.15625 189.507812 369.414062 187.476562 369.050781 185.597656 C 368.730469 184.015625 368.175781 182.476562 367.40625 181.042969 C 366.207031 178.820312 364.691406 176.683594 363.386719 174.503906 L 353.59375 157.890625 C 351.03125 153.445312 348.398438 149.214844 347.074219 144.191406 C 345.707031 139.082031 346.175781 133.394531 346.175781 128.136719 L 346.175781 112.382812 C 346.132812 107.828125 346.539062 103.039062 344.507812 98.808594 C 343.527344 96.777344 342.160156 95.066406 340.449219 93.589844 C 338.117188 91.601562 335.019531 90.105469 332.410156 88.460938 L 313.214844 76.554688 C 309.558594 74.332031 305.539062 72.234375 302.570312 69.136719 C 299.488281 65.90625 297.417969 61.398438 295.257812 57.550781 L 287.242188 43.332031 C 285.46875 40.128906 283.757812 36.492188 281.171875 33.84375 C 278.882812 31.492188 275.675781 29.738281 272.554688 28.820312 C 268.984375 27.75 265.074219 27.984375 261.398438 27.984375 L 245.640625 27.984375 C 240.167969 27.984375 234.011719 28.582031 228.734375 26.894531 C 223.710938 25.292969 218.878906 21.914062 214.304688 19.285156 L 197.863281 9.964844 C 195.277344 8.46875 192.457031 6.375 189.675781 5.324219 C 188.308594 4.8125 187.046875 4.835938 185.617188 4.875 C 182.238281 5.648438 178.96875 8.191406 175.976562 9.921875 L 159.042969 19.433594 C 154.554688 21.9375 149.746094 24.992188 144.808594 26.425781 C 139.65625 27.898438 133.992188 27.878906 128.667969 28.070312 L 111.351562 28.5 C 107.71875 28.542969 103.65625 28.199219 100.109375 29.074219 C 97.4375 29.738281 94.871094 31.214844 92.902344 33.117188 C 92.328125 33.671875 91.792969 34.25 91.324219 34.890625 C 90.894531 35.425781 90.511719 36 90.148438 36.601562 C 88.691406 38.929688 87.496094 41.453125 86.171875 43.847656 L 76.636719 60.820312 C 74.90625 63.898438 73.257812 67.640625 70.800781 70.203125 C 68.578125 72.511719 65.265625 74.136719 62.527344 75.828125 L 44.015625 87.21875 C 40.894531 89.125 37.410156 90.855469 34.523438 93.078125 C 33.027344 94.230469 31.746094 95.578125 30.65625 97.117188 C 29.285156 99.085938 28.367188 101.308594 27.917969 103.679688 C 27.339844 106.738281 27.554688 109.964844 27.554688 113.066406 L 27.597656 127.984375 C 27.597656 133.78125 28.003906 139.679688 26.25 145.28125 C 24.691406 150.324219 21.804688 154.941406 19.261719 159.539062 L 11.992188 172.707031 C 10.15625 175.933594 7.78125 179.375 6.710938 182.945312 C 5.878906 185.746094 5.878906 188.71875 6.585938 191.5625 C 7.460938 195.046875 9.578125 198.316406 11.289062 201.4375 L 18.46875 214.457031 C 21.503906 219.886719 24.882812 225.484375 26.421875 231.558594 C 27.554688 236.023438 27.382812 240.578125 27.382812 245.152344 L 27.382812 258.535156 C 27.320312 264.457031 27.105469 270.632812 29.972656 276.019531 C 31.1875 278.328125 32.921875 280.253906 34.953125 281.921875 C 37.089844 283.675781 39.804688 284.933594 42.175781 286.386719 L 56.5625 295.367188 C 61.03125 298.167969 66.117188 300.816406 69.816406 304.582031 C 72.765625 307.59375 74.585938 311.078125 76.722656 314.648438 Z M 39.078125 234.636719 C 34.671875 221.253906 32.257812 206.71875 31.765625 192.628906 C 31.230469 177.644531 33.242188 162.765625 37.023438 148.273438 C 39.996094 136.898438 44.121094 125.675781 49.679688 115.289062 C 56.050781 103.382812 64.214844 92.242188 73.429688 82.367188 C 101.433594 52.398438 139.632812 33.734375 180.847656 32.324219 C 187.027344 31.898438 193.355469 32.261719 199.53125 32.773438 C 232.28125 35.53125 263.363281 49.167969 288.097656 70.71875 C 314.625 93.847656 332.410156 124.972656 339.039062 159.539062 C 340.726562 168.34375 341.515625 177.410156 342.09375 186.34375 C 342.308594 189.488281 341.988281 192.671875 341.730469 195.792969 L 340.40625 207.828125 L 338.546875 219.179688 C 335.191406 235.105469 329.140625 251.03125 320.84375 265.074219 C 315.800781 273.625 309.6875 281.601562 303.144531 289.039062 C 299.488281 293.207031 295.492188 296.96875 291.367188 300.691406 C 269.648438 320.269531 242.542969 333.546875 213.8125 338.933594 C 206.929688 340.214844 199.980469 340.878906 193.011719 341.328125 C 160.242188 342.460938 126.550781 332.777344 99.359375 314.347656 C 92.753906 309.882812 86.511719 304.6875 80.65625 299.257812 C 61.863281 281.792969 47.09375 258.984375 39.078125 234.613281 Z M 39.078125 234.636719 " fill-opacity="1" fill-rule="nonzero"/><path fill="#004aad" d="M 285.722656 113.386719 L 288.074219 119.050781 L 290.832031 113.429688 L 296.304688 113.621094 L 292.050781 108.8125 L 294.144531 102.910156 L 288.609375 105.625 L 282.921875 101.863281 L 284.546875 108.253906 L 279.632812 112.550781 C 281.578125 112.765625 283.886719 112.828125 285.765625 113.363281 Z M 285.722656 113.386719 " fill-opacity="1" fill-rule="nonzero"/><path fill="#004aad" d="M 292.605469 259.453125 L 292.351562 259.347656 L 287.648438 262.425781 L 282.410156 259.390625 L 283.863281 265.609375 L 278.753906 270.015625 L 285.316406 270.589844 L 287.777344 276.363281 C 288.671875 274.4375 289.722656 272.472656 290.382812 270.441406 L 296.539062 269.992188 L 291.453125 265.417969 L 292.628906 259.496094 Z M 292.605469 259.453125 " fill-opacity="1" fill-rule="nonzero"/><path fill="#004aad" d="M 82.835938 113.75 L 83.15625 114.175781 L 86.042969 120.246094 L 87.964844 113.449219 L 94.484375 112.617188 C 92.691406 111.226562 90.402344 109.964844 88.820312 108.382812 C 89.011719 107.421875 90.082031 102.699219 89.632812 101.992188 L 89.355469 102.035156 L 84.609375 105.925781 L 78.945312 102.78125 C 79.652344 104.664062 80.867188 107.015625 81.210938 108.917969 L 76.421875 113.621094 C 78.453125 113.621094 80.867188 113.40625 82.855469 113.75 Z M 82.835938 113.75 " fill-opacity="1" fill-rule="nonzero"/><path fill="#004aad" d="M 92.753906 261.675781 C 93.011719 260.992188 93.460938 260.160156 93.546875 259.410156 L 87.367188 262.296875 L 82.152344 257.914062 L 82.984375 264.777344 L 77.492188 268.453125 C 79.5 268.773438 82.109375 269.007812 84.011719 269.734375 L 85.65625 276.191406 L 88.160156 271.960938 C 88.394531 271.53125 88.777344 270.589844 89.078125 270.292969 C 89.078125 270.292969 89.460938 270.183594 89.484375 270.183594 L 89.890625 270.183594 C 89.890625 270.183594 95.683594 270.613281 95.683594 270.613281 L 91.257812 265.632812 L 92.777344 261.632812 Z M 92.753906 261.675781 " fill-opacity="1" fill-rule="nonzero"/><path fill="#004aad" d="M 97.671875 85.746094 C 100.472656 88.675781 102.929688 91.945312 105.496094 95.066406 C 106.4375 96.21875 107.804688 97.546875 108.550781 98.808594 L 111.375 102.398438 L 116.460938 98.59375 L 102.183594 81.554688 L 106.757812 77.644531 L 104.042969 74.394531 L 103.59375 74.4375 L 90.59375 84.71875 L 93.84375 88.503906 C 95.234375 87.734375 96.429688 86.730469 97.671875 85.722656 Z M 97.671875 85.746094 " fill-opacity="1" fill-rule="nonzero"/><path fill="#004aad" d="M 206.800781 76.851562 L 212.808594 77.300781 L 213.425781 72.023438 L 215.074219 54.515625 L 220.351562 54.941406 L 220.84375 50.066406 L 204.019531 48.441406 L 203.65625 53.488281 C 205.046875 53.636719 207.804688 53.617188 208.917969 54.300781 L 206.777344 76.875 Z M 206.800781 76.851562 " fill-opacity="1" fill-rule="nonzero"/><path fill="#004aad" d="M 182.410156 62.230469 C 184.566406 63.835938 190.660156 66.144531 188.757812 69.777344 C 188.417969 70.417969 187.667969 70.910156 186.960938 71.082031 C 184.441406 71.722656 181.917969 70.269531 179.84375 69.027344 L 179.097656 74.585938 C 181.167969 75.570312 182.921875 76.148438 185.253906 76.253906 C 188.160156 76.210938 191.109375 75.699219 193.269531 73.539062 C 194.765625 72.023438 195.425781 69.671875 195.386719 67.574219 C 195.320312 64.925781 194.1875 63.128906 192.242188 61.417969 C 190.320312 59.730469 184.761719 57.484375 184.652344 54.8125 C 184.609375 54.066406 184.652344 53.488281 185.167969 52.910156 C 185.699219 52.3125 186.707031 51.882812 187.496094 51.863281 C 188.863281 51.820312 190.320312 52.441406 191.535156 52.996094 C 192.070312 51.476562 192.710938 49.597656 192.734375 48.015625 C 190.488281 47.160156 188.542969 46.777344 186.148438 47.054688 C 183.648438 47.628906 181.296875 48.570312 179.824219 50.835938 C 178.519531 52.847656 178.132812 55.304688 178.753906 57.636719 C 179.265625 59.558594 180.871094 61.097656 182.429688 62.253906 Z M 182.410156 62.230469 " fill-opacity="1" fill-rule="nonzero"/><path fill="#004aad" d="M 178.710938 304.902344 L 184.140625 304.625 L 184.738281 330.722656 C 185.617188 330.9375 190.660156 331.152344 191.367188 330.765625 L 191.257812 325.378906 L 190.960938 304.496094 L 196.519531 304.582031 L 196.601562 298.316406 L 178.730469 298.316406 C 178.730469 298.316406 178.691406 304.878906 178.691406 304.878906 Z M 178.710938 304.902344 " fill-opacity="1" fill-rule="nonzero"/><path fill="#004aad" d="M 224.800781 80.65625 L 238.117188 87.113281 L 240.253906 82.453125 L 234.589844 79.695312 C 233.863281 79.332031 232.945312 78.96875 232.410156 78.347656 L 232.453125 77.941406 C 232.859375 77.152344 234.890625 72.664062 235.550781 72.386719 L 239.570312 74.308594 C 240.253906 74.628906 241.023438 75.121094 241.773438 75.25 L 244.039062 70.652344 L 237.539062 67.683594 L 240.234375 62.679688 L 247.222656 65.949219 L 249.320312 61.398438 L 236.984375 55.199219 L 224.523438 80.550781 L 224.777344 80.65625 Z M 224.800781 80.65625 " fill-opacity="1" fill-rule="nonzero"/><path fill="#004aad" d="M 148.933594 70.117188 C 149.636719 72.492188 150.257812 75.164062 151.625 77.257812 C 152.269531 78.222656 153.164062 79.054688 154.148438 79.609375 C 156.628906 81.019531 159.40625 80.742188 162.035156 79.972656 C 164.539062 79.226562 167.082031 77.773438 168.320312 75.355469 C 169.027344 73.988281 169.113281 72.492188 169.003906 70.996094 C 168.855469 69.050781 168.066406 66.933594 167.550781 65.03125 L 163.574219 51.222656 C 163.210938 50.945312 163.40625 51.007812 163.085938 50.945312 C 161.609375 51.285156 159 51.671875 157.804688 52.570312 L 161.246094 64.453125 C 161.910156 66.761719 162.804688 69.222656 163.085938 71.617188 C 163.148438 72.277344 163.128906 72.960938 162.765625 73.519531 C 162.207031 74.394531 161.246094 74.972656 160.21875 75.144531 C 159.363281 75.269531 158.488281 75.3125 157.761719 74.757812 C 155.453125 72.984375 153.933594 65.074219 153.164062 62.210938 C 152.4375 59.558594 151.582031 56.84375 151.027344 54.152344 L 145.0625 55.839844 L 146.046875 59.558594 L 148.976562 70.097656 Z M 148.933594 70.117188 " fill-opacity="1" fill-rule="nonzero"/><path fill="#004aad" d="M 247.628906 310.5 L 239.675781 313.902344 L 238.03125 309.730469 C 237.730469 308.984375 237.285156 308.171875 237.15625 307.378906 L 244.144531 304.539062 L 241.773438 298.808594 L 234.761719 301.800781 L 232.515625 296.074219 L 240.597656 292.523438 C 239.785156 290.75 239.230469 289.019531 238.738281 287.136719 L 238.265625 287.136719 L 223.601562 293.164062 L 235.59375 322.300781 L 244.660156 318.5625 L 248.699219 317.023438 C 248.933594 316.9375 249.726562 316.699219 249.894531 316.574219 C 249.980469 316.488281 250.003906 316.335938 250.046875 316.230469 L 249.9375 315.910156 C 249.234375 314.222656 248.613281 312.019531 247.652344 310.523438 Z M 247.628906 310.5 " fill-opacity="1" fill-rule="nonzero"/><path fill="#004aad" d="M 134.804688 88.117188 L 131.832031 82.195312 L 129.972656 78.457031 L 132.558594 77.429688 C 134.523438 79.011719 136.105469 81.363281 137.667969 83.351562 C 138.203125 84.058594 138.757812 84.910156 139.421875 85.488281 C 141.34375 84.570312 143.738281 83.652344 145.46875 82.410156 L 145.257812 82.261719 C 143.867188 81.277344 142.710938 79.953125 141.515625 78.734375 C 139.71875 76.894531 137.945312 75.058594 136 73.347656 C 136.855469 71.421875 137.261719 69.628906 136.46875 67.574219 C 135.636719 65.351562 134.160156 62.871094 131.894531 61.910156 C 130.890625 61.484375 129.886719 61.3125 128.796875 61.246094 C 124.328125 61.890625 120.394531 64.539062 116.503906 66.699219 L 129.671875 91.238281 L 134.84375 88.117188 Z M 124.136719 67.960938 C 125.289062 67.445312 126.402344 67.019531 127.640625 66.699219 L 128.496094 66.699219 C 129.050781 66.957031 129.351562 67.253906 129.714844 67.746094 C 130.507812 68.792969 131.445312 70.140625 131.167969 71.53125 C 130.890625 72.898438 128.902344 73.859375 127.8125 74.566406 C 126.378906 72.554688 125.289062 70.140625 124.113281 67.960938 Z M 124.136719 67.960938 " fill-opacity="1" fill-rule="nonzero"/><path fill="#004aad" d="M 236.640625 186.066406 L 236.941406 185.554688 C 241.324219 173.007812 243.609375 159.21875 243.589844 145.941406 C 235.167969 145.28125 227.171875 143.804688 219.09375 141.324219 C 213.214844 139.53125 207.675781 137.371094 202.503906 134.035156 C 202.417969 135.9375 202.355469 137.992188 201.882812 139.828125 C 209.28125 143.933594 217.957031 146.605469 226.167969 148.53125 L 234.164062 150.132812 C 235.210938 150.304688 237.328125 150.261719 238.160156 150.753906 C 237.582031 162.210938 235.980469 173.582031 232.367188 184.527344 C 233.414062 185.234375 235.402344 185.703125 236.640625 186.046875 Z M 236.640625 186.066406 " fill-opacity="1" fill-rule="nonzero"/><path fill="#004aad" d="M 169.347656 141.367188 C 170.246094 140.960938 171.679688 140.511719 172.320312 139.808594 C 172.191406 138.78125 172.085938 134.699219 171.550781 134.058594 C 167.980469 136.453125 164.023438 138.160156 159.984375 139.613281 C 155.003906 141.433594 149.832031 142.863281 144.59375 143.675781 C 140.0625 144.359375 135.507812 144.53125 130.933594 144.660156 C 130.996094 153.316406 131.789062 161.65625 133.027344 170.207031 C 133.777344 175.464844 134.589844 180.722656 135.894531 185.875 C 136.277344 186.023438 136.300781 186.023438 136.707031 185.917969 L 141.046875 185 C 138.007812 173.5625 136.363281 161.269531 135.980469 149.425781 C 139.675781 149.234375 143.355469 148.976562 147.007812 148.316406 C 154.597656 146.949219 162.292969 144.511719 169.347656 141.324219 Z M 169.347656 141.367188 " fill-opacity="1" fill-rule="nonzero"/><path fill="#004aad" d="M 186.75 252.355469 C 179.609375 247.890625 173.046875 242.738281 167.101562 236.773438 L 163.339844 232.816406 L 159.257812 227.859375 C 159.085938 227.644531 158.488281 226.8125 158.273438 226.703125 C 158.167969 226.660156 157.527344 226.8125 157.355469 226.832031 L 152.910156 227.472656 L 157.890625 234.1875 C 163.363281 240.492188 169.476562 246.628906 176.1875 251.609375 C 179.480469 254.046875 183.15625 256.289062 186.726562 258.300781 C 197.929688 252.996094 207.804688 243.636719 215.949219 234.507812 C 217.9375 232.285156 220.160156 229.933594 221.742188 227.410156 L 216.054688 226.128906 C 207.847656 236.429688 198.507812 246.136719 186.726562 252.355469 Z M 186.75 252.355469 " fill-opacity="1" fill-rule="nonzero"/><path fill="#004aad" d="M 130.484375 294.148438 C 131.617188 291.96875 132.835938 289.253906 131.980469 286.773438 C 131.125 284.316406 128.519531 282.863281 126.421875 281.578125 L 118.726562 277.238281 L 102.417969 304.773438 L 106.351562 306.890625 C 107.097656 307.339844 107.847656 308 108.636719 308.34375 L 112.699219 301.351562 L 114.386719 298.59375 C 117.273438 300.15625 120.460938 302.527344 123.921875 301.566406 C 126.9375 300.734375 129.117188 296.734375 130.484375 294.128906 Z M 123.816406 292.03125 C 123.089844 293.121094 122.105469 294.554688 120.78125 294.832031 C 119.519531 294.363281 118.40625 293.570312 117.273438 292.84375 L 121.976562 285.214844 C 122.980469 285.875 124.949219 287.09375 125.226562 288.3125 C 125.484375 289.445312 124.414062 291.132812 123.816406 292.054688 Z M 123.816406 292.03125 " fill-opacity="1" fill-rule="nonzero"/><path fill="#004aad" d="M 128.925781 308.707031 C 127.386719 311.292969 125.546875 313.921875 124.347656 316.679688 L 130.675781 319.414062 L 133.90625 313.175781 L 134.117188 313.300781 L 138.351562 315.355469 L 139.207031 315.824219 C 139.292969 316.550781 139.035156 317.34375 138.886719 318.046875 L 138.160156 322.023438 L 144.402344 324.738281 L 150.28125 292.417969 C 147.265625 291.433594 144.039062 290.40625 141.195312 288.996094 L 128.945312 308.726562 Z M 144.207031 295.410156 C 143.375 296.734375 143.183594 298.617188 142.820312 300.132812 L 140.617188 310.09375 L 138.414062 309.113281 L 136.46875 308.320312 C 138.714844 304.089844 140.980469 299.300781 143.78125 295.429688 L 144.207031 295.429688 Z M 144.207031 295.410156 " fill-opacity="1" fill-rule="nonzero"/><path fill="#004aad" d="M 266.335938 292.503906 C 265.691406 291.945312 265.03125 291.667969 264.195312 291.496094 C 263.789062 291.414062 262.9375 291.390625 262.65625 291.113281 L 262.785156 290.835938 C 263.449219 289.402344 263.707031 288.589844 263.363281 286.988281 L 263.300781 286.6875 C 263 285.148438 262.058594 283.523438 261.117188 282.285156 C 259.535156 280.148438 257.996094 278.609375 255.261719 278.203125 L 254.707031 278.136719 C 252.652344 278.542969 250.835938 279.742188 249.039062 280.789062 L 240.597656 286.023438 L 257.589844 311.804688 L 263.382812 308.042969 L 260.242188 303.148438 L 257.058594 297.996094 C 258.105469 297.375 259.128906 296.84375 260.285156 296.394531 C 261.738281 297.417969 262.636719 298.808594 263.683594 300.199219 C 264.882812 301.824219 266.097656 303.40625 267.445312 304.921875 L 273.367188 301.160156 C 271.679688 299.386719 270.289062 297.503906 268.8125 295.558594 C 268.042969 294.554688 267.273438 293.335938 266.335938 292.503906 Z M 254.234375 293.464844 L 249.980469 286.710938 L 253.335938 284.914062 L 254.257812 284.785156 C 255.625 285.492188 257.101562 288.890625 257.675781 290.34375 C 256.777344 291.519531 255.367188 292.503906 254.234375 293.464844 Z M 254.234375 293.464844 " fill-opacity="1" fill-rule="nonzero"/><path fill="#004aad" d="M 260.347656 99.253906 C 262.9375 99.597656 265.074219 99.253906 267.210938 97.652344 C 269.007812 96.285156 270.460938 94.46875 271.851562 92.691406 C 273.539062 90.511719 275.226562 88.246094 275.890625 85.53125 L 275.953125 85.234375 C 276.445312 83.09375 276.039062 80.613281 274.863281 78.777344 C 273.027344 75.933594 269.710938 73.730469 266.996094 71.742188 C 266.121094 71.101562 265.050781 70.117188 264.003906 69.796875 C 261.910156 71.828125 260.179688 74.84375 258.445312 77.238281 L 247.90625 91.839844 C 251.542969 94.894531 255.625 98.1875 260.347656 99.253906 Z M 266.078125 76.765625 L 267.339844 77.707031 C 268.75 78.796875 270.375 79.953125 270.546875 81.875 C 270.78125 84.378906 268.214844 87.285156 266.761719 89.144531 C 265.628906 90.554688 264.152344 92.648438 262.464844 93.378906 C 261.78125 93.675781 260.90625 93.71875 260.179688 93.804688 C 258.296875 93.570312 257.015625 92.84375 255.476562 91.816406 L 266.078125 76.808594 Z M 266.078125 76.765625 " fill-opacity="1" fill-rule="nonzero"/><path fill="#004aad" d="M 171.164062 297.375 C 167.125 296.09375 162.570312 295.835938 158.382812 295.28125 L 153.742188 327.28125 L 160.433594 328.457031 L 162.828125 314.90625 C 163.660156 315.140625 164.878906 315.332031 165.585938 315.824219 L 165.4375 322.984375 C 165.4375 324.804688 165.136719 327.453125 165.585938 329.164062 L 172.296875 330.167969 L 171.699219 314.433594 C 174.265625 312.511719 174.949219 310.308594 175.398438 307.230469 L 175.609375 305.476562 C 175.890625 303.253906 175.953125 301.203125 174.5 299.363281 C 173.6875 298.359375 172.363281 297.738281 171.164062 297.375 Z M 167.359375 309.21875 C 166.097656 309.859375 164.964844 309.453125 163.640625 309.175781 L 164.644531 301.585938 C 165.519531 301.738281 166.484375 301.910156 167.296875 302.25 C 167.871094 302.484375 168.429688 302.847656 168.683594 303.449219 C 168.683594 305.113281 168.472656 307.980469 167.359375 309.21875 Z M 167.359375 309.21875 " fill-opacity="1" fill-rule="nonzero"/><path fill="#004aad" d="M 219.796875 296.15625 C 219.710938 295.625 219.734375 295.066406 219.371094 294.660156 L 219.070312 294.617188 L 213.683594 295.625 C 213.984375 298.019531 214.539062 300.390625 215.074219 302.742188 C 215.285156 303.683594 215.777344 304.75 215.714844 305.691406 C 215.5 308.535156 216.890625 311.550781 217.019531 314.390625 C 215.394531 312.296875 214.066406 309.816406 212.742188 307.507812 L 206.523438 296.671875 L 198.527344 298.058594 L 204.40625 329.699219 C 204.683594 329.742188 204.941406 329.785156 205.21875 329.785156 C 206.800781 329.421875 209.367188 329.183594 210.734375 328.414062 L 206.820312 308.640625 L 217.9375 327.324219 L 224.863281 325.613281 L 220.503906 300.328125 L 219.796875 296.136719 Z M 219.796875 296.15625 " fill-opacity="1" fill-rule="nonzero"/><path fill="#004aad" d="M 240.382812 223.347656 C 233.414062 221.125 226.46875 218.921875 219.328125 217.320312 C 209.601562 215.160156 199.425781 214.050781 189.464844 213.984375 C 186.578125 213.984375 183.390625 213.773438 180.550781 214.113281 C 167.914062 214.945312 155.601562 216.636719 143.417969 220.121094 C 139.65625 221.1875 135.699219 222.363281 132.171875 224.03125 L 134.332031 230.425781 C 152.226562 223.09375 172.234375 220.292969 191.515625 220.71875 C 197.671875 220.953125 203.9375 221.339844 210.027344 222.28125 L 219.691406 224.246094 C 225.890625 225.59375 232.003906 227.238281 237.859375 229.71875 L 240.425781 223.304688 Z M 240.382812 223.347656 " fill-opacity="1" fill-rule="nonzero"/><path fill="#004aad" d="M 105.601562 229.484375 L 105.921875 229.25 C 106.285156 228.992188 106.691406 228.820312 107.097656 228.628906 L 113.511719 225.1875 C 111.714844 221.53125 109.984375 217.875 108.660156 214.050781 C 102.886719 197.441406 102.460938 178.839844 108.144531 162.125 L 112.933594 150.730469 L 97.5625 141.988281 C 95.0625 147.097656 92.796875 152.355469 91.128906 157.785156 C 84.996094 177.75 85.464844 199.449219 92.242188 219.203125 L 98.355469 233.394531 C 98.761719 233.480469 99.53125 232.96875 99.914062 232.777344 C 101.882812 231.792969 103.804688 230.765625 105.601562 229.484375 Z M 105.601562 229.484375 " fill-opacity="1" fill-rule="nonzero"/><path fill="#004aad" d="M 269.734375 184.101562 C 270.140625 194.296875 268.195312 205.179688 264.582031 214.667969 L 260.199219 224.738281 L 267.851562 228.648438 L 276.230469 233.265625 C 279.757812 227.152344 282.195312 220.675781 284.078125 213.898438 C 288.78125 196.992188 289.015625 178.734375 284.484375 161.78125 C 282.773438 155.390625 280.464844 149.257812 277.386719 143.378906 L 276.789062 143.378906 C 276.789062 143.378906 261.652344 151.4375 261.652344 151.4375 C 266.25 161.699219 269.304688 172.8125 269.753906 184.101562 Z M 269.734375 184.101562 " fill-opacity="1" fill-rule="nonzero"/><path fill="#004aad" d="M 131.488281 221.894531 C 151.347656 213.601562 173.644531 210.992188 195.019531 211.65625 C 211.054688 212.746094 226.082031 215.929688 241.238281 221.230469 L 252.140625 196.605469 L 236.878906 191.433594 C 223.132812 187.390625 209.109375 185.296875 194.808594 184.613281 C 189.484375 184.355469 183.839844 184.058594 178.519531 184.550781 C 172.277344 184.890625 165.925781 185.148438 159.726562 186.023438 C 146.878906 187.820312 134.761719 191.433594 122.382812 195.089844 L 131.488281 221.917969 Z M 131.488281 221.894531 " fill-opacity="1" fill-rule="nonzero"/><path fill="#004aad" d="M 259.046875 227.582031 L 258.554688 227.386719 L 255.433594 232.347656 C 254.75 233.375 246.003906 243.679688 246.003906 243.679688 C 242.992188 246.605469 239.699219 249.429688 236.34375 251.972656 C 232.324219 255.027344 228.027344 257.445312 223.515625 259.644531 C 211.375 265.566406 198.570312 268.582031 185.015625 268.324219 C 162.742188 267.917969 141.214844 258.105469 125.867188 242.097656 C 121.761719 237.800781 117.765625 232.96875 114.835938 227.773438 C 113.105469 228.523438 111.609375 229.503906 109.964844 230.402344 L 99.574219 236.34375 C 101.96875 240.8125 104.9375 244.917969 108.125 248.871094 C 118.214844 261.015625 131.574219 271.46875 146.046875 277.878906 C 156.242188 282.414062 167.273438 285.128906 178.390625 286.132812 C 204.640625 288.527344 231.875 280.082031 252.097656 263.128906 C 261.417969 255.308594 268.835938 246.476562 274.757812 235.855469 L 266.25 231.214844 C 263.898438 229.933594 261.546875 228.542969 259.046875 227.558594 Z M 259.046875 227.582031 " fill-opacity="1" fill-rule="nonzero"/><path fill="#004aad" d="M 171.871094 88.3125 C 148.804688 92.074219 127.578125 103.359375 111.910156 120.761719 C 106.96875 126.253906 102.265625 132.519531 98.890625 139.082031 L 114.453125 148.101562 C 117.015625 143.527344 119.859375 139.101562 123.238281 135.082031 C 134.097656 122.257812 149.296875 112.957031 165.414062 108.425781 C 172.0625 106.546875 179.136719 105.5625 186.066406 105.519531 C 187.925781 105.519531 189.914062 105.453125 191.773438 105.648438 C 205.773438 106.589844 218.878906 110.90625 230.871094 118.132812 C 233.542969 119.734375 236.257812 121.359375 238.714844 123.261719 C 243.097656 126.683594 247.160156 130.742188 250.816406 134.914062 C 254.277344 138.867188 257.828125 143.785156 260.070312 148.53125 L 276.039062 140.664062 C 264.113281 117.855469 242.371094 99.660156 217.789062 91.964844 C 207.035156 88.609375 194.914062 86.578125 183.628906 87.21875 C 179.695312 87.433594 175.761719 87.667969 171.890625 88.289062 Z M 171.871094 88.3125 " fill-opacity="1" fill-rule="nonzero"/><path fill="#004aad" d="M 82.75 170.761719 C 83.433594 166.25 84.652344 161.761719 85.933594 157.402344 C 87.6875 151.414062 90.1875 145.816406 92.820312 140.191406 L 51.15625 121.058594 C 48.910156 125.933594 46.6875 130.871094 44.871094 135.917969 C 36.191406 160.199219 33.605469 185.875 37.667969 211.335938 C 39.140625 220.570312 41.320312 229.71875 44.570312 238.503906 L 51.753906 254.773438 L 76.207031 242.738281 L 92.945312 234.441406 C 82.644531 215.523438 79.480469 191.988281 82.730469 170.761719 Z M 52.628906 183.460938 L 57.246094 185.042969 L 60.476562 181.535156 L 60.625 186.175781 L 65.5 187.691406 L 60.730469 189.296875 L 60.796875 194.253906 L 57.332031 190.386719 L 56.648438 190.640625 L 52.757812 192.203125 L 55.195312 187.882812 L 52.609375 183.460938 Z M 64.539062 222 L 62.933594 227.238281 C 62.078125 225.59375 61.351562 223.96875 60.753906 222.195312 L 55.816406 222.34375 L 59.578125 218.988281 L 57.332031 213.644531 C 58.828125 214.136719 60.859375 215.910156 62.207031 216.808594 L 66.355469 213.558594 L 66.695312 213.664062 L 65.390625 218.6875 L 69.988281 221.574219 L 64.539062 222.023438 Z M 66.035156 158.019531 L 66.398438 163.195312 L 62.613281 159.410156 L 62.101562 159.410156 L 57.460938 161.675781 L 60.070312 156.996094 C 59.664062 155.625 57.761719 153.660156 56.863281 152.484375 L 62.1875 153.511719 L 64.902344 149.257812 L 65.242188 149.449219 L 65.734375 154.492188 L 70.886719 155.882812 C 69.453125 156.800781 67.65625 157.402344 66.078125 158 Z M 66.035156 158.019531 " fill-opacity="1" fill-rule="nonzero"/><path fill="#004aad" d="M 287.390625 158.339844 C 289.804688 167 290.875 175.828125 291.109375 184.785156 C 291.429688 197.398438 290 210.246094 285.59375 222.152344 C 283.992188 226.492188 282.195312 230.980469 279.738281 234.914062 L 296.796875 242.714844 L 322 254.515625 C 325.953125 246.179688 329.417969 237.84375 332.027344 228.96875 C 338.460938 207.144531 339.570312 183.824219 335.425781 161.441406 C 333.800781 152.632812 331.277344 143.976562 328.261719 135.554688 C 326.679688 131.128906 324.886719 126.082031 322.382812 122.109375 L 321.765625 122.300781 L 280.722656 141.113281 C 283.285156 146.710938 285.722656 152.378906 287.390625 158.320312 Z M 314.753906 222.171875 C 314.175781 222.066406 313.664062 221.957031 313.0625 222 L 310.5625 226.296875 L 309.472656 221.210938 L 304.707031 220.140625 L 309.152344 217.660156 L 308.640625 212.746094 C 310.027344 213.921875 311.246094 215.097656 312.421875 216.507812 C 313.769531 215.417969 315.289062 214.882812 316.871094 214.242188 C 316.570312 215.589844 315.695312 217.128906 314.882812 218.261719 L 314.710938 218.472656 L 318.28125 222.644531 L 314.773438 222.152344 Z M 321.125 191.113281 L 317.808594 190.042969 C 316.71875 190.40625 315.308594 192.289062 314.476562 193.144531 L 314.304688 188.804688 C 313.0625 188.183594 311.890625 187.777344 310.714844 187.027344 C 311.824219 186.429688 313.042969 186.046875 314.238281 185.597656 L 314.644531 181.214844 C 315.609375 182.261719 316.378906 183.351562 317.148438 184.527344 C 318.6875 184.527344 320.011719 184.269531 321.488281 183.867188 L 319.304688 187.371094 Z M 305.859375 153.894531 L 309.664062 153.359375 L 310.734375 148.59375 L 312.636719 152.675781 L 312.742188 152.953125 L 317.894531 152.953125 C 317.894531 152.953125 314.453125 156.074219 314.453125 156.074219 L 316.292969 161.011719 L 311.78125 158.640625 L 308.0625 162.019531 L 309.003906 157.101562 L 304.40625 154.195312 C 304.769531 153.960938 305.433594 153.9375 305.859375 153.875 Z M 305.859375 153.894531 " fill-opacity="1" fill-rule="nonzero"/><g fill="#004aad" fill-opacity="1"><g transform="translate(185.390618, 202.399981)"><g><path d="M 2.109375 0.078125 C 1.804688 0.078125 1.566406 -0.00390625 1.390625 -0.171875 C 1.222656 -0.335938 1.140625 -0.5625 1.140625 -0.84375 C 1.140625 -1.113281 1.222656 -1.332031 1.390625 -1.5 C 1.566406 -1.675781 1.804688 -1.765625 2.109375 -1.765625 C 2.410156 -1.765625 2.644531 -1.679688 2.8125 -1.515625 C 2.988281 -1.347656 3.078125 -1.128906 3.078125 -0.859375 C 3.078125 -0.578125 2.988281 -0.347656 2.8125 -0.171875 C 2.632812 -0.00390625 2.398438 0.078125 2.109375 0.078125 Z M 2.109375 0.078125 "/></g></g></g></svg>